 <svg
          
          xmlns="http://www.w3.org/2000/svg"
          viewBox="0 0 22 24"
        
        >
          <path
            d="M21.07 5.214C21.048 2.314 18.63 0 15.73 0H6.276C3.397 0 .986 2.278.931 5.156a5.264 5.264 0 0 0 5.257 5.36h4.223c.33 0 .424.45.122.582l-6.472 2.838a5.264 5.264 0 0 0-3.13 4.847C.951 21.685 3.37 24 6.272 24h2.215c2.923 0 5.356-2.344 5.351-5.266a5.265 5.265 0 0 0-3.293-4.867.304.304 0 0 1-.005-.559l7.405-3.246a5.264 5.264 0 0 0 3.125-4.848z"
          fill="#73DC8C"
          ></path>
        </svg>